<?xml version="1.0" encoding="UTF-8"?>
<svg xmlns="http://www.w3.org/2000/svg" xmlns:xlink="http://www.w3.org/1999/xlink" width="16pt" height="16pt" viewBox="0 0 16 16" version="1.1">
<g id="surface1">
<path style=" stroke:none;fill-rule:evenodd;fill:rgb(100%,100%,100%);fill-opacity:1;" d="M 9.5 10.5 C 9.398438 10.5 9.300781 10.5 9.199219 10.601562 C 9 10.699219 9 11 9.101562 11.101562 C 9.300781 11.300781 9.5 11.300781 9.699219 11.199219 C 10 11 9.800781 10.5 9.5 10.5 Z M 9.5 10.5 "/>
<path style=" stroke:none;fill-rule:evenodd;fill:rgb(100%,100%,100%);fill-opacity:1;" d="M 14.101562 7.699219 C 14.101562 7.699219 14.101562 7.601562 14.101562 7.601562 C 14.101562 6 12.800781 4.699219 11.199219 4.699219 C 10.601562 4.699219 10.101562 4.898438 9.601562 5.199219 C 9 3.898438 7.699219 2.898438 6.101562 2.898438 C 4 2.898438 2.398438 4.601562 2.398438 6.601562 C 2.398438 6.898438 2.398438 7.199219 2.5 7.5 C 1.101562 7.699219 0 8.898438 0 10.398438 C 0 11.898438 1.101562 13.101562 2.5 13.199219 L 13.5 13.199219 C 14.898438 13 16 11.800781 16 10.398438 C 16 9.199219 15.199219 8.101562 14.101562 7.699219 Z M 8.199219 10.101562 C 8.101562 10.199219 8.101562 10.300781 7.898438 10.398438 C 7.800781 10.5 7.800781 10.5 7.898438 10.699219 C 8.101562 11 7.898438 11.101562 7.601562 11.199219 C 7.398438 11.300781 7.300781 11.398438 7.199219 11.300781 C 7 11.199219 7 11 6.898438 11 C 6.699219 11 6.5 11.101562 6.398438 11 C 6.398438 11 6.300781 11.199219 6.300781 11.300781 C 6.300781 11.398438 6.199219 11.5 6.101562 11.5 C 6 11.5 5.800781 11.398438 5.601562 11.398438 L 5.5 11.300781 C 5.5 11.199219 5.398438 11.199219 5.398438 11 C 5.398438 10.898438 5.5 10.800781 5.5 10.699219 C 5.199219 10.5 5.300781 10.5 5.101562 10.300781 C 4.898438 10.300781 4.800781 10.5 4.699219 10.398438 C 4.5 10.398438 4.398438 10.199219 4.398438 10.101562 C 4.300781 10 4.199219 9.898438 4.300781 9.699219 C 4.398438 9.601562 4.5 9.5 4.699219 9.398438 C 4.699219 9.398438 4.699219 9.300781 4.699219 9.300781 C 4.699219 9.199219 4.699219 9 4.699219 8.898438 C 4.5 8.800781 4.199219 8.800781 4.199219 8.5 C 4.199219 8.398438 4.300781 8 4.398438 7.898438 C 4.5 7.800781 4.5 7.800781 4.699219 7.800781 C 4.800781 7.800781 4.898438 7.898438 5 7.898438 C 5 7.898438 5 7.800781 5.101562 7.699219 C 5.199219 7.601562 5.199219 7.601562 5.300781 7.5 C 5.300781 7.398438 5.101562 7.199219 5.199219 7.101562 C 5.199219 6.898438 5.398438 6.898438 5.5 6.800781 C 5.601562 6.699219 5.800781 6.699219 5.898438 6.699219 C 6.101562 6.800781 6.101562 7 6.199219 7.101562 C 6.199219 7.101562 6.398438 7.101562 6.5 7.101562 C 6.5 7.101562 6.601562 7.101562 6.601562 7.101562 C 6.601562 7.101562 6.699219 7.101562 6.699219 7.101562 C 6.800781 7 6.800781 6.800781 6.898438 6.699219 C 7.101562 6.601562 7.199219 6.699219 7.300781 6.699219 C 7.5 6.800781 7.699219 6.800781 7.699219 7 C 7.699219 7.101562 7.699219 7.300781 7.601562 7.398438 C 7.601562 7.398438 7.800781 7.5 7.800781 7.601562 C 7.898438 7.699219 8 7.800781 8.101562 7.800781 C 8.300781 7.699219 8.300781 7.601562 8.5 7.699219 C 8.699219 7.699219 8.800781 7.898438 8.800781 8 C 8.898438 8.199219 9 8.300781 8.898438 8.398438 C 8.800781 8.5 8.601562 8.601562 8.5 8.699219 C 8.5 8.898438 8.5 8.898438 8.5 9.101562 C 8.5 9.101562 8.5 9.199219 8.5 9.199219 C 8.601562 9.300781 8.800781 9.300781 8.898438 9.398438 C 9 9.601562 8.898438 9.699219 8.898438 9.800781 C 8.800781 10 8.800781 10.101562 8.601562 10.199219 C 8.5 10.300781 8.300781 10.199219 8.199219 10.101562 Z M 10.199219 11.199219 C 10.101562 11.398438 10.101562 11.300781 10 11.300781 L 9.898438 11.398438 C 10 11.5 10 11.601562 9.800781 11.601562 C 9.601562 11.699219 9.699219 11.601562 9.601562 11.5 C 9.5 11.5 9.5 11.5 9.398438 11.5 C 9.300781 11.601562 9.398438 11.699219 9.199219 11.601562 C 9 11.601562 9.101562 11.5 9.101562 11.398438 L 9 11.300781 C 8.898438 11.300781 8.800781 11.398438 8.699219 11.199219 C 8.601562 11 8.699219 11 8.800781 11 L 8.800781 10.800781 C 8.699219 10.699219 8.601562 10.699219 8.699219 10.601562 C 8.800781 10.398438 8.800781 10.5 8.898438 10.5 L 9 10.398438 C 9 10.300781 8.898438 10.199219 9.101562 10.199219 C 9.199219 10.101562 9.199219 10.199219 9.300781 10.300781 C 9.398438 10.300781 9.300781 10.300781 9.398438 10.300781 C 9.398438 10.300781 9.5 10.300781 9.5 10.300781 C 9.601562 10.199219 9.601562 10.101562 9.699219 10.199219 C 9.898438 10.300781 9.800781 10.300781 9.800781 10.398438 L 9.898438 10.5 C 10 10.398438 10.101562 10.398438 10.101562 10.601562 C 10.199219 10.800781 10.101562 10.800781 10 10.800781 C 10 10.800781 10 11 10 11 C 10.199219 11 10.300781 11 10.199219 11.199219 Z M 11.800781 9.300781 C 11.699219 9.398438 11.601562 9.300781 11.5 9.300781 L 11.300781 9.601562 C 11.300781 9.699219 11.398438 9.800781 11.398438 9.800781 C 11.398438 9.898438 11.300781 10 11.199219 10 C 11.101562 10 11 10.101562 11 10.101562 C 10.898438 10 10.898438 9.898438 10.800781 9.898438 C 10.699219 9.898438 10.699219 9.898438 10.5 9.898438 C 10.5 10 10.398438 10.101562 10.398438 10.199219 C 10.300781 10.300781 10.199219 10.199219 10.101562 10.199219 C 9.898438 10 9.800781 10 9.800781 9.898438 C 9.800781 9.800781 9.800781 9.699219 9.800781 9.601562 C 9.800781 9.601562 9.699219 9.5 9.699219 9.5 C 9.699219 9.5 9.699219 9.398438 9.601562 9.398438 C 9.398438 9.5 9.300781 9.601562 9.199219 9.300781 C 9.199219 9.199219 9.101562 9.199219 9.199219 9.101562 C 9.300781 9 9.398438 9 9.398438 8.898438 C 9.398438 8.800781 9.398438 8.800781 9.398438 8.601562 C 9.199219 8.5 9 8.5 9.101562 8.199219 C 9.199219 8 9.300781 7.898438 9.5 8 L 9.699219 7.699219 C 9.601562 7.5 9.699219 7.398438 9.898438 7.300781 C 10 7.300781 10.101562 7.199219 10.199219 7.199219 C 10.300781 7.300781 10.300781 7.398438 10.398438 7.398438 C 10.5 7.398438 10.5 7.398438 10.601562 7.398438 C 10.699219 7.398438 10.699219 7.398438 10.800781 7.398438 C 10.898438 7.300781 10.898438 7.101562 11 7.101562 C 11.101562 7.101562 11.199219 7.199219 11.300781 7.199219 L 11.398438 7.300781 C 11.398438 7.398438 11.398438 7.398438 11.398438 7.5 C 11.398438 7.5 11.398438 7.601562 11.300781 7.699219 L 11.601562 7.898438 C 11.699219 7.898438 11.800781 7.800781 11.800781 7.800781 C 11.898438 7.800781 11.898438 7.898438 12 8 C 12 8.101562 12.101562 8.199219 12 8.199219 C 12 8.300781 11.898438 8.300781 11.800781 8.398438 C 11.800781 8.398438 11.800781 8.601562 11.800781 8.699219 C 11.898438 8.800781 12.101562 8.800781 12.101562 8.898438 C 11.898438 9 11.898438 9.300781 11.800781 9.300781 Z M 11.800781 9.300781 "/>
<path style=" stroke:none;fill-rule:evenodd;fill:rgb(100%,100%,100%);fill-opacity:1;" d="M 5.699219 8.199219 C 5.199219 8.699219 5.300781 9.5 5.699219 9.898438 C 6.199219 10.398438 7 10.300781 7.398438 9.898438 C 7.898438 9.398438 7.800781 8.601562 7.398438 8.199219 C 6.898438 7.699219 6.199219 7.699219 5.699219 8.199219 Z M 5.699219 8.199219 "/>
<path style=" stroke:none;fill-rule:evenodd;fill:rgb(100%,100%,100%);fill-opacity:1;" d="M 10 8.101562 C 9.699219 8.398438 9.699219 8.898438 10 9.101562 C 10.300781 9.398438 10.800781 9.398438 11 9.101562 C 11.300781 8.800781 11.300781 8.300781 11 8.101562 C 10.699219 7.898438 10.300781 7.898438 10 8.101562 Z M 10 8.101562 "/>
</g>
</svg>
